<?xml version="1.0" encoding="UTF-8"?>
<svg id="Capa_2" data-name="Capa 2" xmlns="http://www.w3.org/2000/svg" viewBox="0 0 633.37 631.42">
  <defs>
    <style>
      .cls-1 {
        fill: #eedb8b;
      }

      .cls-2 {
        fill: #a9f291;
      }

      .cls-3 {
        fill: #f4ee91;
      }

      .cls-4 {
        fill: #3e8a53;
      }
    </style>
  </defs>
  <g id="Capa_4" data-name="Capa 4">
    <g>
      <g>
        <path class="cls-2" d="m413.02,212.57c18.93,3.94,37.08,10.87,53.99,20.64,17.77,10.26,33.51,23.33,46.74,38.62,58.17-49.43,99.75-115.2,119.62-190.62-74.61-19.15-151.61-15.15-222.59,10.85,7.48,20.17,11.36,41.62,11.36,63.44,0,19.53-3.07,38.71-9.12,57.07Z"/>
        <g>
          <path class="cls-2" d="m225.98,93.27C153.79,67.25,75.63,64.01,0,84.62c16.75,22.99,50.73,63.16,107.28,93.04,46.9,24.78,90.14,32.35,116.91,34.9-6.06-18.37-9.12-37.55-9.12-57.08,0-21.38,3.72-42.41,10.91-62.22Z"/>
          <path class="cls-4" d="m0,84.62c20.91,74.85,63.43,140.03,122.23,188.63,13.47-15.91,29.65-29.47,47.97-40.05,16.91-9.76,35.06-16.7,53.99-20.64-26.76-2.56-70.01-10.12-116.91-34.9C50.73,147.78,16.75,107.61,0,84.62Z"/>
        </g>
        <g>
          <path class="cls-4" d="m289.68,475c4.24-43.14,17.85-77.01,28.92-98.93-12.9,14.46-27.98,26.72-44.87,36.47-18.45,10.65-38.43,17.9-59.09,21.59,13.94,74.47,50.01,142.77,105,197.29-12.78-25.3-37.23-82.58-29.96-156.43Z"/>
          <path class="cls-2" d="m363.47,412.53c-16.89-9.75-31.96-22.01-44.87-36.47-11.08,21.92-24.68,55.79-28.92,98.93-7.27,73.84,17.19,131.13,29.96,156.43,53.72-54.87,88.7-123.29,101.77-197.49-20.25-3.75-39.84-10.95-57.94-21.4Z"/>
        </g>
      </g>
      <g>
        <path class="cls-1" d="m219.68,345.8c-29.22-32.76-27.28-89.64,10.5-126.25-19.68,3.57-38.51,10.5-55.98,20.58-17.71,10.23-33.11,23.16-45.84,38.08-.86,1.01-1.69,2.03-2.53,3.06-.85,1.04-1.69,2.09-2.51,3.15-25.19,32.47-38.35,73.34-36.01,116.19,35.78,23.34,77.54,32.4,118.08,26.98,1.33-.18,2.66-.37,3.99-.58,1.3-.21,2.6-.4,3.9-.64,19.48-3.53,38.57-10.44,56.46-20.77,17.44-10.07,32.86-22.93,45.81-38.22-35.45,12-73.65,3.33-95.87-21.59Z"/>
        <path class="cls-3" d="m512.78,283c-.83-1.05-1.69-2.08-2.54-3.11-.84-1.01-1.7-2.01-2.57-3.01-12.5-14.36-27.49-26.82-44.66-36.74-17.47-10.09-36.3-17.01-55.98-20.58l-4.64-.84,1.59-4.44c6.75-18.83,10.17-38.6,10.17-58.77s-3.75-41.61-10.76-60.64c-.46-1.25-.93-2.5-1.41-3.73-.49-1.25-1.01-2.48-1.53-3.72-15.7-37.22-44.19-68.33-81.83-87.41-38.05,19.28-66.74,50.85-82.33,88.59-.51,1.24-1.01,2.48-1.49,3.74-.47,1.23-.95,2.45-1.4,3.69-6.73,18.69-10.31,38.75-10.31,59.47s3.42,39.95,10.17,58.77l1.59,4.44-4.64.84c-37.78,36.6-39.72,93.49-10.5,126.25,22.22,24.92,60.42,33.59,95.87,21.59l3.05-3.6,3.05,3.6c12.96,15.29,28.37,28.15,45.81,38.22,17.51,10.11,36.17,16.93,55.23,20.52,1.31.25,2.62.47,3.93.69,1.32.22,2.65.43,3.97.62,40.92,5.77,83.16-3.25,119.29-26.82,2.37-43.48-11.2-84.92-37.11-117.62Z"/>
      </g>
    </g>
  </g>
</svg>