<?xml version="1.0" encoding="UTF-8"?>
<svg id="Capa_2" data-name="Capa 2" xmlns="http://www.w3.org/2000/svg" viewBox="0 0 1080 128.99">
  <defs>
    <style>
      .cls-1 {
        fill: #eedb8b;
      }

      .cls-2 {
        fill: #3e8a53;
      }
    </style>
  </defs>
  <g id="Capa_4" data-name="Capa 4">
    <g>
      <g>
        <path class="cls-1" d="m0,93.62c0-1.61.89-2.5,2.5-2.5h11.26c1.43,0,2.32.89,2.5,2.32.36,13.58,5.54,20.37,15.19,20.37s14.47-5.18,14.47-14.83C45.91,71.28,1.07,62.89,1.07,28.58,1.07,11.08,12.86,0,30.55,0s29.12,13.4,29.84,34.3c0,1.43-.71,2.32-2.32,2.32h-11.26c-1.43,0-2.32-.89-2.32-2.32-.54-13.22-5.36-19.29-13.76-19.29s-13.58,4.64-13.58,13.58c0,25.55,45.02,33.94,45.02,70.39,0,18.4-12.33,30.01-30.91,30.01S.71,115.23,0,93.62Z"/>
        <path class="cls-1" d="m123.63,1.96h11.25c1.43,0,2.32.89,2.32,2.32v120.24c0,1.61-.89,2.5-2.32,2.5h-11.25c-1.61,0-2.5-.89-2.5-2.5v-53.42h-27.51v53.42c0,1.61-.89,2.5-2.32,2.5h-11.26c-1.61,0-2.5-.89-2.5-2.5V4.29c0-1.43.89-2.32,2.5-2.32h11.26c1.43,0,2.32.89,2.32,2.32v51.99h27.51V4.29c0-1.43.89-2.32,2.5-2.32Z"/>
        <path class="cls-1" d="m157.58,124.52V33.05C157.58,13.4,169.73.18,188.13.18s30.73,13.22,30.73,32.87v91.47c0,1.61-.89,2.5-2.5,2.5h-11.26c-1.43,0-2.5-.89-2.5-2.5v-39.66h-28.94v39.66c0,1.61-.89,2.5-2.32,2.5h-11.43c-1.43,0-2.32-.89-2.32-2.5Zm45.02-54.49v-37.7c0-10.72-5.18-16.97-14.47-16.97s-14.47,6.25-14.47,16.97v37.7h28.94Z"/>
        <path class="cls-1" d="m257.09,124.52v-38.41c-13.4-3.22-22.33-15.36-22.33-30.91V4.29c0-1.43.89-2.32,2.5-2.32h11.26c1.43,0,2.5.89,2.5,2.32v51.63c0,9.29,5.54,16.26,14.11,16.26s14.29-6.97,14.29-16.26V4.29c0-1.43.89-2.32,2.32-2.32h11.26c1.61,0,2.5.89,2.5,2.32v50.92c0,15.54-8.75,27.69-22.33,30.91v38.41c0,1.61-.89,2.5-2.32,2.5h-11.26c-1.61,0-2.5-.89-2.5-2.5Z"/>
      </g>
      <g>
        <path class="cls-2" d="m351.78,96.3v-63.78c0-19.12,11.79-32.34,30.01-32.34s28.94,13.04,29.66,30.37c0,1.07-.71,1.79-1.79,1.79h-7.15c-1.07,0-1.79-.54-1.79-1.79-.71-11.79-7.68-20.37-18.94-20.37-11.97,0-19.3,8.93-19.3,22.51v63.6c0,13.58,8.04,22.51,19.65,22.51s19.65-8.93,19.65-20.72v-27.69h-16.79c-1.07,0-1.79-.72-1.79-1.79v-6.43c0-1.07.71-1.79,1.79-1.79h22.15c3.39,0,5.36,1.96,5.36,5.36v32.34c0,17.33-12.51,30.73-30.37,30.73s-30.37-13.4-30.37-32.52Z"/>
        <path class="cls-2" d="m430.57,125.24V32.34c0-18.76,11.97-32.16,29.3-32.16s29.3,13.4,29.3,32.16v13.22c0,14.83-7.68,25.19-18.04,29.48l20.55,49.85c.54,1.25-.18,2.14-1.43,2.14h-7.86c-.89,0-1.61-.36-1.96-1.43l-19.3-48.42h-19.83v48.06c0,1.07-.71,1.79-1.79,1.79h-7.15c-1.07,0-1.79-.71-1.79-1.79Zm29.12-58.06c11.26,0,18.76-8.93,18.76-21.62v-13.22c0-13.22-7.5-22.15-18.58-22.15s-18.58,8.93-18.58,22.15v34.84h18.4Z"/>
        <path class="cls-2" d="m506.68,96.65V32.34c0-17.33,11.97-30.73,29.12-30.73h18.58c1.07,0,1.79.72,1.79,1.79v6.43c0,1.07-.71,1.79-1.79,1.79h-18.58c-10.9,0-18.4,8.93-18.4,20.72v26.26h32.69c1.07,0,1.79.71,1.79,1.79v6.43c0,1.07-.72,1.79-1.79,1.79h-32.69v28.05c0,11.79,7.5,20.72,18.4,20.72h18.58c1.07,0,1.79.71,1.79,1.79v6.43c0,1.07-.71,1.79-1.79,1.79h-18.58c-17.15,0-29.12-13.4-29.12-30.73Z"/>
        <path class="cls-2" d="m571,96.65V32.34c0-17.33,11.97-30.73,29.12-30.73h18.58c1.07,0,1.79.72,1.79,1.79v6.43c0,1.07-.72,1.79-1.79,1.79h-18.58c-10.9,0-18.4,8.93-18.4,20.72v26.26h32.69c1.07,0,1.79.71,1.79,1.79v6.43c0,1.07-.71,1.79-1.79,1.79h-32.69v28.05c0,11.79,7.5,20.72,18.4,20.72h18.58c1.07,0,1.79.71,1.79,1.79v6.43c0,1.07-.72,1.79-1.79,1.79h-18.58c-17.15,0-29.12-13.4-29.12-30.73Z"/>
        <path class="cls-2" d="m637.64,125.24V32.34c0-18.76,11.61-32.16,29.48-32.16s29.48,13.4,29.48,32.16v92.9c0,1.07-.72,1.79-1.79,1.79h-7.15c-1.07,0-1.79-.71-1.79-1.79V32.34c0-13.22-7.32-22.15-18.76-22.15s-18.76,8.93-18.76,22.15v92.9c0,1.07-.71,1.79-1.79,1.79h-7.15c-1.07,0-1.79-.71-1.79-1.79Z"/>
        <path class="cls-2" d="m768.42,1.96h7.15c1.07,0,1.79.72,1.79,1.79v121.49c0,1.07-.72,1.79-1.79,1.79h-7.15c-1.07,0-1.79-.71-1.79-1.79v-56.81h-35.73v56.81c0,1.07-.71,1.79-1.79,1.79h-7.15c-1.07,0-1.79-.71-1.79-1.79V3.75c0-1.07.71-1.79,1.79-1.79h7.15c1.07,0,1.79.72,1.79,1.79v54.85h35.73V3.75c0-1.07.71-1.79,1.79-1.79Z"/>
        <path class="cls-2" d="m798.61,95.58v-62.17c0-19.65,12.51-33.05,30.37-33.05s30.37,13.4,30.37,31.26v65.74c0,17.87-12.51,31.26-30.37,31.26s-30.37-13.4-30.37-33.05Zm50.02,1.79V31.62c0-12.33-8.04-21.26-19.65-21.26s-19.65,8.93-19.65,23.05v62.17c0,14.11,8.04,23.05,19.65,23.05s19.65-8.93,19.65-21.26Z"/>
        <path class="cls-2" d="m888.12,1.96c1.07,0,1.79.72,1.79,1.79v92.9c0,13.22,7.33,22.15,18.76,22.15s18.76-8.93,18.76-22.15V3.75c0-1.07.71-1.79,1.79-1.79h7.15c1.07,0,1.79.72,1.79,1.79v92.9c0,18.76-11.61,32.16-29.48,32.16s-29.48-13.4-29.48-32.16V3.75c0-1.07.71-1.79,1.79-1.79h7.15Z"/>
        <path class="cls-2" d="m955.65,94.87c0-1.07.72-1.79,1.79-1.79h7.15c1.07,0,1.79.72,1.79,1.79.54,15.72,7.15,23.94,19.29,23.94s18.94-6.43,18.94-18.76c0-30.55-48.06-37.34-48.06-72.18,0-16.61,11.43-27.69,28.76-27.69,16.26,0,27.51,13.22,28.41,33.05,0,1.07-.71,1.79-1.79,1.79h-7.15c-1.07,0-1.79-.71-1.79-1.79-.72-15.72-6.97-23.05-17.69-23.05-11.79,0-18.04,6.07-18.04,17.69,0,28.76,48.06,35.37,48.06,72.18,0,17.33-11.79,28.76-29.66,28.76s-29.48-13.58-30.01-33.94Z"/>
        <path class="cls-2" d="m1030.51,96.65V32.34c0-17.33,11.97-30.73,29.12-30.73h18.58c1.07,0,1.79.72,1.79,1.79v6.43c0,1.07-.72,1.79-1.79,1.79h-18.58c-10.9,0-18.4,8.93-18.4,20.72v26.26h32.69c1.07,0,1.79.71,1.79,1.79v6.43c0,1.07-.71,1.79-1.79,1.79h-32.69v28.05c0,11.79,7.5,20.72,18.4,20.72h18.58c1.07,0,1.79.71,1.79,1.79v6.43c0,1.07-.72,1.79-1.79,1.79h-18.58c-17.15,0-29.12-13.4-29.12-30.73Z"/>
      </g>
    </g>
  </g>
</svg>